<?xml version="1.0" encoding="iso-8859-1"?>
<!-- Generator: Adobe Illustrator 19.0.0, SVG Export Plug-In . SVG Version: 6.00 Build 0)  -->
<svg version="1.1" id="Capa_1" xmlns="http://www.w3.org/2000/svg" xmlns:xlink="http://www.w3.org/1999/xlink" x="0px" y="0px"
	 viewBox="0 0 512 512" style="enable-background:new 0 0 512 512;" xml:space="preserve">
<g>
	<path style="fill:#333E40;" d="M362.355,167.913c-0.012,0-0.024,0-0.035,0c-4.265-0.02-7.707-3.485-7.692-7.749
		c0.008-2.226,0.537-54.924,30.501-91.357c2.71-3.296,7.58-3.77,10.876-1.059c3.296,2.71,3.77,7.579,1.06,10.876
		c-26.411,32.112-26.98,81.112-26.984,81.604C370.057,164.478,366.603,167.913,362.355,167.913z"/>
	<path style="fill:#333E40;" d="M425.668,180.88c-0.012,0-0.024,0-0.035,0c-4.265-0.02-7.707-3.485-7.692-7.749
		c0.008-2.226,0.537-54.924,30.501-91.357c2.711-3.296,7.58-3.77,10.876-1.059c3.296,2.71,3.77,7.579,1.06,10.876
		c-26.411,32.112-26.98,81.112-26.984,81.604C433.37,177.445,429.916,180.88,425.668,180.88z"/>
	<path style="fill:#333E40;" d="M3.228,298.106c-4.304,0.826-4.304,6.987,0,7.812l63.349,19.879v-47.581L3.228,298.106z"/>
</g>
<ellipse transform="matrix(-0.2905 0.9569 -0.9569 -0.2905 437.2274 -118.6336)" style="fill:#D9D9D9;" cx="262.596" cy="102.781" rx="64.83" ry="60.009"/>
<g>
	<path style="fill:#F0F0F0;" d="M238.176,148.636c-0.475,0-0.956-0.043-1.438-0.135c-4.191-0.79-6.95-4.823-6.163-9.014
		c0.346-1.846,8.793-45.524,35.661-71.801c3.051-2.984,7.944-2.929,10.926,0.122c2.983,3.05,2.929,7.943-0.122,10.926
		c-23.338,22.825-31.203,63.204-31.279,63.609C245.058,146.05,241.816,148.636,238.176,148.636z"/>
	
		<ellipse transform="matrix(-0.2905 -0.9569 0.9569 -0.2905 74.6679 296.3123)" style="fill:#F0F0F0;" cx="147.189" cy="120.474" rx="74.067" ry="68.56"/>
</g>
<path style="fill:#D9D9D9;" d="M175.083,171.757c-3.643,0-6.886-2.588-7.583-6.299c-0.095-0.5-9.139-46.936-36.048-73.254
	c-3.05-2.983-3.105-7.876-0.122-10.926c2.983-3.048,7.875-3.107,10.926-0.122c30.451,29.782,40.036,79.351,40.429,81.447
	c0.787,4.194-1.975,8.231-6.169,9.018C176.035,171.713,175.555,171.757,175.083,171.757z"/>
<path style="fill:#FFCE1C;" d="M198.964,340.578v-92.911l40.761-79.724l-8.836-32.191c-29.661,5.55-57.058,15.285-80.952,28.275
	l-42.097,29.48l-23.966,75.14v71.332l29.371,67.734l36.691,32.282c23.894,12.991,51.291,22.726,80.952,28.275l14.83-35.382
	L198.964,340.578z"/>
<path style="fill:#FAA330;" d="M243.003,439.369c-4.075-0.595-8.119-1.253-12.115-2.003c-29.661-5.55-57.058-15.285-80.952-28.275
	c-20.924-11.382-39.159-25.275-53.901-41.065l17.21,39.689l36.691,32.282c1.494,0.812,3,1.611,4.52,2.397
	c4.562,2.359,9.243,4.601,14.037,6.721c12.908,5.707,26.758,10.537,40.592,14.225c7.112,1.897,14.386,3.545,21.802,4.933
	L243.003,439.369z"/>
<g>
	<path style="fill:#3B484A;" d="M106.883,302.007c0,51.426,15.946,99.048,43.054,137.989
		C92.466,408.734,55.21,358.569,55.21,302.007c0-56.552,37.256-106.726,94.727-137.978
		C122.829,202.97,106.883,250.593,106.883,302.007z"/>
	<path style="fill:#3B484A;" d="M487.777,381.44c-24.927,37.959-67.661,67.557-121.494,82.151
		c-23.853,6.47-49.885,9.994-77.51,9.994c-19.977,0-39.375-1.84-57.885-5.312c-40.915-42.951-66.131-101.601-66.131-166.264
		c0-64.654,25.217-123.303,66.131-166.254c18.509-3.473,37.908-5.312,57.885-5.312c62.958,0,117.629,18.292,157.108,48.046
		c11.637,8.774,21.961,18.53,30.777,29.113L487.777,381.44z"/>
</g>
<path style="fill:#333E40;" d="M366.282,432.684c-23.853,6.47-49.885,9.994-77.51,9.994c-19.977,0-39.375-1.84-57.885-5.312
	c-10.112-1.892-19.955-4.282-29.492-7.11c8.567,13.685,18.452,26.426,29.492,38.016c2.314,0.434,4.641,0.843,6.983,1.225
	c42.517,6.949,86.768,5.388,128.412-5.907c43.803-11.88,85.873-35.445,114.019-71.701c2.644-3.407,5.138-6.892,7.475-10.45
	l-1.806-28.233C460.815,389.879,418.844,418.437,366.282,432.684z"/>
<path style="fill:#FFCE1C;" d="M511.996,302.007c0.219,28.162-8.749,56.004-24.22,79.432
	c-60.189,91.151-202.467,85.55-252.58-16.784c-9.508-19.409-14.634-40.543-14.634-62.648c0-30.663,9.869-59.455,27.604-84.372
	c34.507-48.501,104.432-55.652,147.011-14.065c0.672,0.661,1.343,1.323,2.005,2.005c0.672-0.682,1.343-1.343,2.005-2.005
	c0.134-0.134,0.269-0.259,0.403-0.392c22.003-21.227,57.491-19.057,77.066,4.424C498.75,234.102,511.725,267.224,511.996,302.007z"
	/>
<path style="fill:#FAA330;" d="M511.918,298.451c-0.121-3.725-0.393-7.446-0.805-11.15c-2.599,22.519-10.844,44.315-23.337,63.234
	c-24.927,37.959-67.661,67.558-121.494,82.151c-12.748,3.457-26.124,6.065-40.029,7.751c58.09,16.041,124.955-3.618,161.522-58.996
	c14.062-21.297,22.712-46.267,24.039-71.801C512.007,305.977,512.039,302.213,511.918,298.451z"/>
<path style="fill:#333E40;" d="M56.15,286.554c-0.177,1.458-0.326,2.922-0.452,4.391c-0.044,0.51-0.078,1.022-0.116,1.533
	c-1.15,15.346,0.497,30.826,4.799,45.599c8.608,29.556,27.381,55.174,50.511,75.124c11.575,9.982,24.679,18.98,39.047,26.795
	c-10.109-14.521-18.664-30.252-25.42-46.936C86.403,365.354,61.196,328.09,56.15,286.554z"/>
<g>
	<path style="fill:#3B484A;" d="M324.427,319.849c-4.268,0-7.726-3.459-7.726-7.726v-13.186c0-4.267,3.458-7.726,7.726-7.726
		s7.726,3.459,7.726,7.726v13.186C332.154,316.389,328.695,319.849,324.427,319.849z"/>
	<path style="fill:#3B484A;" d="M470.149,319.849c-4.268,0-7.726-3.459-7.726-7.726v-13.186c0-4.267,3.458-7.726,7.726-7.726
		c4.268,0,7.726,3.459,7.726,7.726v13.186C477.876,316.389,474.417,319.849,470.149,319.849z"/>
	<path style="fill:#3B484A;" d="M397.289,326.888c-9.239,0-17.914-3.863-23.8-10.597c-2.809-3.213-2.481-8.094,0.732-10.902
		c3.212-2.808,8.094-2.48,10.901,0.732c2.953,3.378,7.387,5.315,12.166,5.315c4.78,0,9.213-1.937,12.165-5.315
		c2.809-3.213,7.691-3.542,10.902-0.732c3.213,2.808,3.542,7.689,0.733,10.902C415.202,323.025,406.529,326.888,397.289,326.888z"/>
</g>
<circle style="fill:#FFCE1C;" cx="391.098" cy="73.718" r="18.195"/>
<path style="fill:#FAA330;" d="M408.535,68.588c-2,6.722-7.806,11.968-15.211,12.881c-8.974,1.107-17.207-4.53-19.667-12.934
	c-0.693,2.331-0.936,4.837-0.62,7.405c1.231,9.973,10.313,17.061,20.286,15.831c9.973-1.231,17.061-10.313,15.831-20.287
	C409.032,70.486,408.809,69.525,408.535,68.588z"/>
<circle style="fill:#FFCE1C;" cx="454.413" cy="86.677" r="18.195"/>
<path style="fill:#FAA330;" d="M471.848,81.556c-2,6.722-7.806,11.968-15.211,12.881c-8.974,1.107-17.207-4.53-19.667-12.934
	c-0.693,2.331-0.936,4.837-0.62,7.405c1.231,9.973,10.313,17.061,20.286,15.831c9.973-1.231,17.061-10.313,15.831-20.287
	C472.345,83.453,472.122,82.492,471.848,81.556z"/>
<g>
</g>
<g>
</g>
<g>
</g>
<g>
</g>
<g>
</g>
<g>
</g>
<g>
</g>
<g>
</g>
<g>
</g>
<g>
</g>
<g>
</g>
<g>
</g>
<g>
</g>
<g>
</g>
<g>
</g>
</svg>
