<?xml version="1.0" encoding="iso-8859-1"?>
<!-- Generator: Adobe Illustrator 19.0.0, SVG Export Plug-In . SVG Version: 6.00 Build 0)  -->
<svg version="1.1" id="Capa_1" xmlns="http://www.w3.org/2000/svg" xmlns:xlink="http://www.w3.org/1999/xlink" x="0px" y="0px"
	 viewBox="0 0 512 512" style="enable-background:new 0 0 512 512;" xml:space="preserve">
<path style="fill:#E8FAFF;" d="M195.487,44.413C113.738,54.568,0,152.058,0,249.548L294.5,96.712
	C294.5,96.712,285.185,33.27,195.487,44.413z"/>
<path style="fill:#B2EDFF;" d="M511.86,409.714c-0.022-7.861-5.632-14.621-13.384-15.923
	C365.172,371.406,170.699,271.91,213.26,178.462c15.571-34.189,59.408-39.097,59.408-39.097v-36.051H162.483L15.233,207.912v157.405
	l277.237,95.459L512,460.734L511.86,409.714z"/>
<path style="fill:#00C3FF;" d="M424.681,395.933c-107.927-34.758-230.935-105.701-245.962-179.318
	c-6.518-31.925,8.136-80.805,65.005-113.302h-81.242L15.233,207.912v135.251l147.902-48.512
	c14.724,19.217,33.903,37.342,57.506,53.752c1.412,0.984,3.031,1.452,4.629,1.452c2.571,0,5.101-1.214,6.68-3.483
	c2.559-3.689,1.65-8.751-2.035-11.314c-34.757-24.161-59.203-52.231-72.808-81.969c-1.846-4.036-0.079-8.822,3.826-10.93l0,0
	c4.013-2.167,8.881-0.389,10.869,3.716c38.44,79.345,169.664,140.333,247.896,165.53c0.829,0.262,1.666,0.389,2.491,0.389
	c3.435,0,6.625-2.19,7.731-5.633C431.298,401.892,428.95,397.314,424.681,395.933z"/>
<path style="fill:#00AAF0;" d="M15.233,207.912v135.251l108.847-35.702c-3.57-8.149-7.035-16.599-10.342-25.416
	C64.993,152.058,194.98,103.313,194.98,103.313h-32.497L15.233,207.912z"/>
<path style="fill:#D1F4FF;" d="M50.099,193.356c0,0,65.631-114.354,187.906-114.354c26.707,0,54.481,12.208,64.112,19.233
	c43.16,31.481-4.483,81.879-27.25,47.729c-26.065-39.097-73.221-47.863-118.816-29.45c-52.807,21.326-82.257,73.456-82.257,73.456
	L50.099,193.356"/>
<path style="fill:#FFFFFF;" d="M37.236,300.324c-39.944-31.143-23.081-113.745,52.13-92.074
	c39.944,11.509,55.515-20.987,32.497-35.882c-12.143-7.857-39.225-7.776-69.346,1.94C21.182,184.415,0,213.734,0,246.657v108.505
	c0,31.408,25.461,56.869,56.869,56.869l0,0L37.236,300.324z"/>
<path style="fill:#D1F4FF;" d="M56.869,412.031L37.236,300.324c-33.142-25.84-27.135-87.049,18.817-94.786l-0.368-0.165
	C36.051,207.573,0,218.575,0,282.044l0,0C0,367.856,56.869,412.031,56.869,412.031z"/>
<path style="fill:#00C3FF;" d="M136.08,315.218c0,0,97.563,134.73,367.603,137.394c4.477,0.044,8.139,3.645,8.139,8.122l0,0
	c0,4.51-3.656,8.166-8.166,8.166H174.669c-36.763,0-86.658-16.248-117.8-56.869c-26.055-33.985-16.248-97.49-16.248-97.49
	L136.08,315.218z"/>
<path style="fill:#00AAF0;" d="M503.876,452.652c-43.881,0-141.634,0-243.903,0c-66.011,0-113.225-22.471-143.627-52.114
	c-11.229-10.949-3.042-30.081,12.641-30l0.152,0.001c14.994,0,29.399-9.917,36.168-25.427
	c-20.14-17.409-29.228-29.893-29.228-29.893l-95.459-0.677c0,0-9.807,63.505,16.248,97.49c31.143,40.621,81.037,56.869,117.8,56.869
	h328.986c4.51,0,8.166-3.656,8.166-8.166C511.822,456.325,508.259,452.801,503.876,452.652z"/>
<path style="fill:#E8FAFF;" d="M25.05,321.988c-11.617,47.966,31.819,90.043,31.819,90.043s-23.232-40.408-5.585-69.563
	c11.678-19.295,35.543-23.357,62.454,4.57c20.51,21.283,48.647-8.847,35.633-31.64c11.773,2.169,23.853-2.059,25.298-13.043
	C179.972,262.049,46.037,235.331,25.05,321.988z"/>
<path style="fill:#D1F4FF;" d="M51.284,342.468c11.678-19.295,35.543-23.357,62.454,4.57c20.51,21.283,48.647-8.847,35.633-31.64
	c-24.124-32.677-84.886-36.4-105.704-0.857c-21.635,36.939-3.047,75.825,13.202,97.49C56.869,412.031,33.637,371.623,51.284,342.468
	z"/>
<g>
	<path style="fill:#59D8FF;" d="M469.098,424.59c-0.567,0-1.142-0.056-1.718-0.182c-4.55-0.976-9.29-2.095-14.197-3.332
		c-4.352-1.095-6.986-5.514-5.891-9.862c1.095-4.364,5.534-6.99,9.866-5.895c4.717,1.19,9.267,2.261,13.642,3.205
		c4.383,0.944,7.176,5.26,6.232,9.647C476.215,421.988,472.843,424.59,469.098,424.59z"/>
	<path style="fill:#59D8FF;" d="M261.659,371.751c-1.265,0-2.547-0.294-3.745-0.92c-3.661-1.904-7.251-3.856-10.774-5.839
		c-3.907-2.206-5.284-7.164-3.078-11.068c2.206-3.911,7.172-5.292,11.068-3.086c3.364,1.904,6.795,3.761,10.29,5.585
		c3.979,2.071,5.526,6.982,3.451,10.956C267.423,370.165,264.59,371.751,261.659,371.751z"/>
</g>
<g>
</g>
<g>
</g>
<g>
</g>
<g>
</g>
<g>
</g>
<g>
</g>
<g>
</g>
<g>
</g>
<g>
</g>
<g>
</g>
<g>
</g>
<g>
</g>
<g>
</g>
<g>
</g>
<g>
</g>
</svg>
