<svg id="Layer_1" height="512" viewBox="0 0 128 128" width="512" xmlns="http://www.w3.org/2000/svg" data-name="Layer 1"><path d="m57.562 34.188c3.125-18.25-2.562-20.375-7.125-21.5l3.663-6.5c9.9.313 20.983 16.9 23.4 31.021" fill="#72bd39"/><path d="m121.5 71.5c0 22.74-10.01 36.44-20.62 39.33a16.172 16.172 0 0 1 -4.66.57l-.04.04a17.8 17.8 0 0 1 -8.31 4.81 13.08 13.08 0 0 1 -4.43.25 1.774 1.774 0 0 1 -.34.24c0 .01-.01.02-.03.03-5.67 4.18-13.09 4.73-19.07 4.73-6.11 0-13.73-.57-19.44-5-4.88.55-9.22-1.63-12.78-5.1-12.11.35-25.28-13.84-25.28-39.9 0-26.34 20.46-35.05 25.06-32.38 7.63-9.42 17.37-12.02 22.24-3.62a15.353 15.353 0 0 1 10.2-3.38 15.824 15.824 0 0 1 9.38 2.73c.28.2.55.42.82.65a11.779 11.779 0 0 1 2.05-2.65c5.23-4.99 13.52-1.97 20.19 6.27a5.94 5.94 0 0 1 3.91-.28h.01c7.52 1.41 21.14 11.17 21.14 32.66z" fill="#fba430"/><g fill="#da8a29"><path d="m108.52 68.46a1.741 1.741 0 0 1 -1.59 1.89.756.756 0 0 1 -.15.01 1.743 1.743 0 0 1 -1.74-1.6c-.98-11.42-4.45-23.28-8.6-29.64a5.94 5.94 0 0 1 3.91-.28h.01c3.99 7.08 7.22 18.6 8.16 29.62z"/><path d="m82.458 57.656 6.839 11.844h-13.677z"/><path d="m45.542 57.656-6.839 11.844h13.677z"/><path d="m68.618 78.165a1.747 1.747 0 0 1 -1.384-.677l-3.234-4.165-3.234 4.165a1.75 1.75 0 0 1 -2.766-2.146l4.618-5.942a1.813 1.813 0 0 1 2.765 0l4.617 5.942a1.75 1.75 0 0 1 -1.381 2.823z"/><path d="m91.87 78.79c-1.98 5.64-7.37 18.33-22.87 20.61v-3.84h-10v3.84c-15.5-2.28-20.89-14.97-22.88-20.61 1.27.47 6.26 2.19 12.17 3.64v6.15h10v-4.26a37.928 37.928 0 0 0 5.71.3 37.928 37.928 0 0 0 5.71-.3v4.26h10v-6.15a125.525 125.525 0 0 0 12.16-3.64z"/><path d="m107.19 95.46a63.382 63.382 0 0 1 -6.31 15.37 16.172 16.172 0 0 1 -4.66.57c4.14-5.1 6.82-14.05 7.59-16.86a1.751 1.751 0 0 1 3.38.92z"/><path d="m92.59 104.18a40.177 40.177 0 0 1 -4.72 12.07 13.08 13.08 0 0 1 -4.43.25 1.774 1.774 0 0 1 -.34.24c2.47-2.6 4.87-7.81 6.07-13.3a1.75 1.75 0 0 1 3.42.74z"/><path d="m79.62 46.46a1.552 1.552 0 0 1 -.37.04 1.751 1.751 0 0 1 -1.71-1.38 33.121 33.121 0 0 0 -4.16-10.27c.28.2.55.42.82.65a11.779 11.779 0 0 1 2.05-2.65 36.576 36.576 0 0 1 4.71 11.53 1.746 1.746 0 0 1 -1.34 2.08z"/><path d="m19.48 68.46a1.741 1.741 0 0 0 1.59 1.89.756.756 0 0 0 .15.01 1.743 1.743 0 0 0 1.74-1.6c.98-11.42 4.45-23.28 8.6-29.64a5.94 5.94 0 0 0 -3.91-.28h-.01c-3.99 7.08-7.22 18.6-8.16 29.62z"/><path d="m20.81 95.46a63.382 63.382 0 0 0 6.31 15.37 16.172 16.172 0 0 0 4.66.57c-4.14-5.1-6.82-14.05-7.59-16.86a1.751 1.751 0 0 0 -3.38.92z"/><path d="m35.41 104.18a40.177 40.177 0 0 0 4.72 12.07 13.08 13.08 0 0 0 4.43.25 1.774 1.774 0 0 0 .34.24c-2.47-2.6-4.87-7.81-6.07-13.3a1.75 1.75 0 0 0 -3.42.74z"/><path d="m48.38 46.46a1.552 1.552 0 0 0 .37.04 1.751 1.751 0 0 0 1.71-1.38 33.121 33.121 0 0 1 4.16-10.27c-.28.2-.55.42-.82.65a11.779 11.779 0 0 0 -2.05-2.65 36.576 36.576 0 0 0 -4.71 11.53 1.746 1.746 0 0 0 1.34 2.08z"/></g></svg>