<svg id="Capa_1" enable-background="new 0 0 511.992 511.992" height="512" viewBox="0 0 511.992 511.992" width="512" xmlns="http://www.w3.org/2000/svg"><g><path d="m64.663 4.992c-33.765 37.936-53.847 128.275-22.765 205.996l8.366 20.912 98.436-69.34-37.437-132.14z" fill="#5b5555"/><path d="m447.963 6.292-59.614 43.826-25.767 112.53 98.498 69.285 8.377-20.945c45.699-114.272-20.432-201.697-21.494-204.696z" fill="#463f3f"/><path d="m461.162 231.891c-51.599-72.599-52.5-76.199-68.699-99.3 6.301-41.999 26.101-89.7 55.5-126.299-3.898-5.4-10.8-7.499-17.099-5.399-47.701 15.899-87.001 47.999-112.202 90.899-7.5-1.199-15-1.8-22.798-1.8h-40.201-40.201c-7.798 0-15.298.601-22.798 1.8-25.201-42.9-64.501-75-112.202-90.899-5.7-2.1-11.899-.4-15.799 4.099 28.801 36.901 48.2 86.5 53.9 127.599 0 .3-5.099 8.101-68.399 99.3-5.429 9.049-11.893 18.056-16.8 37.2l222.299.3 222.299.3c-3.27-13.447-8.753-26.542-16.8-37.8z" fill="#ffb64c"/><path d="m461.162 231.891c-51.599-72.599-52.5-76.199-68.699-99.3 6.301-41.999 26.101-89.7 55.5-126.299-3.898-5.4-10.8-7.499-17.099-5.399-47.701 15.899-87.001 47.999-112.202 90.899-7.5-1.199-15-1.8-22.798-1.8h-40.201v179.399l222.299.3c-3.27-13.447-8.753-26.542-16.8-37.8z" fill="#ff9100"/><path d="m477.962 269.692c-52.5-1.5-102.599-28.2-143.699-76.8-11.4-13.801-30.3-18.9-52.8-2.699-7.571 5.572-16.659 8.086-25.8 8.007-10.052-.086-20.173-3.351-28.5-10.107-6.299-5.101-13.2-8.401-24.3-8.101-13.2.601-23.101 9.6-27.9 15.3-36.599 42.9-87.599 68.399-141.599 73.799-1.8 8.101-2.701 16.501-2.701 25.201 0 96.899 150.601 217.7 225 217.7s225-120.801 225-217.7c0-8.399-.901-16.8-2.701-24.6z" fill="#ffd396"/><path d="m480.663 294.292c0-8.399-.901-16.8-2.701-24.6-52.5-1.5-102.599-28.2-143.699-76.8-11.4-13.801-30.3-18.9-52.8-2.699-7.571 5.572-16.659 8.086-25.8 8.007v313.792c74.399 0 225-120.801 225-217.7z" fill="#ffb64c"/><circle cx="195.663" cy="224.992" fill="#463f3f" r="15"/><circle cx="315.663" cy="224.992" fill="#352c2c" r="15"/><path d="m327.762 283.63-7.383-10.254c-14.692-20.903-38.877-33.384-64.717-33.384s-50.024 12.48-64.717 33.384l-7.383 10.254c-16.035 21.987-32.531 47.483-32.9 76.362-.375 29.317 18.173 51.936 45.835 58.374 22.447 5.153 44.852-2.545 59.165-18.691 14.312 16.128 36.812 23.892 59.18 18.677 27.601-6.412 46.132-29.106 45.82-58.359-.305-28.694-16.466-53.83-32.9-76.363z" fill="#766e6e"/><path d="m314.842 418.351c27.601-6.412 46.132-29.106 45.82-58.359-.306-28.693-16.467-53.829-32.9-76.362l-7.383-10.254c-14.692-20.903-38.877-33.384-64.717-33.384v159.683c14.312 16.127 36.812 23.891 59.18 18.676z" fill="#5b5555"/><g><g><path d="m263.163 315.012h-7.5-7.5c-23.851-.353-37.5 5.741-37.5 29.98 0 24.814 20.186 45 45 45s45-20.186 45-45c0-24.397-13.653-30.127-37.5-29.98z" fill="#463f3f"/></g><g><path d="m300.663 344.992c0-24.397-13.652-30.126-37.5-29.98h-7.5v74.98c24.814 0 45-20.186 45-45z" fill="#352c2c"/></g></g></g></svg>