<?xml version="1.0" encoding="iso-8859-1"?>
<!-- Generator: Adobe Illustrator 19.0.0, SVG Export Plug-In . SVG Version: 6.00 Build 0)  -->
<svg version="1.1" id="Layer_1" xmlns="http://www.w3.org/2000/svg" xmlns:xlink="http://www.w3.org/1999/xlink" x="0px" y="0px"
	 viewBox="0 0 502 502" style="enable-background:new 0 0 502 502;" xml:space="preserve">
<g>
	<g>
		<g>
			
				<rect x="5" y="5" style="fill:#FFFC00;stroke:#231F20;stroke-width:10;stroke-linecap:round;stroke-linejoin:round;stroke-miterlimit:10;" width="492" height="492"/>
		</g>
		<g>
			<path d="M497,502H5c-2.762,0-5-2.238-5-5V5c0-2.762,2.238-5,5-5h492c2.762,0,5,2.238,5,5v492C502,499.762,499.762,502,497,502z
				 M10,492h482V10H10V492z"/>
		</g>
	</g>
	<g>
		<path d="M448,455.192h-43c-2.762,0-5-2.238-5-5s2.238-5,5-5h43c2.762,0,5,2.238,5,5S450.762,455.192,448,455.192z"/>
	</g>
	<g>
		<path d="M355,455.192H55c-2.762,0-5-2.238-5-5s2.238-5,5-5h300c2.762,0,5,2.238,5,5S357.762,455.192,355,455.192z"/>
	</g>
	<g>
		<path style="fill:#FFFFFF;" d="M155.019,181.192c-0.14-15.659,1.026-30.723,5.656-41.104
			c23.125-51.851,72.164-55.879,86.643-55.879c2.401,0,4.803-0.048,7.205-0.067c14.513,0,63.659,4.036,86.797,55.915
			c7.718,17.307,5.808,47.637,4.27,72.007l-0.064,1.06c-0.213,3.394-0.419,6.692-0.592,9.85c0.369,0.376,3.328,3.225,10.011,3.482
			h0.007c5.078-0.195,10.915-1.814,17.32-4.814c1.878-0.876,3.963-1.061,5.382-1.061c2.168,0,4.365,0.419,6.19,1.181l0.111,0.045
			c5.181,1.836,8.575,5.468,8.648,9.262c0.067,3.573-2.66,8.946-16.042,14.232c-1.387,0.545-3.16,1.108-5.037,1.703
			c-7.65,2.428-19.192,6.091-22.73,14.432c-2.473,5.819-0.093,11.252,1.926,16.69c0.96,2.237,24.072,54.945,75.68,63.449
			c2.917,0.481,3.623,3.832,2.634,6.1c-2.128,4.979-11.725,12.038-45.294,17.225c-2.742,0.421-3.805,3.995-5.442,11.488
			c-0.595,2.727-1.198,5.406-2.027,8.223c-0.715,2.445-2.238,3.588-4.801,3.588h-0.417c-1.778,0-4.307-0.318-7.512-0.947
			c-5.683-1.112-12.055-2.136-20.162-2.136c-4.734,0-9.633,0.414-14.556,1.228c-10.071,1.679-18.621,7.716-27.672,14.114
			c-13.158,9.305-27.864,17.401-49.027,17.401c-20.548,0-34.752-5.713-51.255-17.381c-9.067-6.407-17.624-12.455-27.706-14.134
			c-4.919-0.814-9.816-1.228-14.548-1.228c-8.525,0-15.25,1.316-20.16,2.276c-2.984,0.584-5.558,1.086-7.514,1.086
			c-2.044,0-4.259-0.442-5.221-3.731c-0.837-2.849-1.441-5.608-2.023-8.277c-1.5-6.87-2.564-11.095-5.444-11.536
			c-33.557-5.183-43.161-12.251-45.303-17.266c-0.959-2.269-0.283-5.608,2.643-6.085c51.585-8.495,74.717-61.218,75.678-63.457
			c2.224-5.249,4.315-11.059,1.926-16.688c-3.54-8.343-15.085-12.01-22.728-14.434c-1.87-0.592-3.643-1.151-5.041-1.703
			c-15.25-6.029-16.519-12.218-15.92-15.372c1.022-5.374,8.205-9.12,14.013-9.12c1.593,0,2.995,0.282,4.174,0.833
			c6.86,3.214,13.043,4.843,18.378,4.843c7.371,0,10.589-3.098,10.982-3.504L155.019,181.192z"/>
		<path d="M252.125,422.858c-20.34,0-35.52-5.131-54.142-18.299c-8.586-6.066-16.69-11.794-25.641-13.284
			c-4.649-0.77-9.27-1.16-13.727-1.16c-8.032,0-14.479,1.261-19.188,2.181c-3.244,0.635-6.035,1.182-8.486,1.182
			c-6.853,0-9.219-4.591-10.02-7.326c-0.896-3.053-1.541-6.009-2.109-8.616c-0.495-2.267-1.373-6.291-2.129-7.787
			c-28.664-4.503-44.474-11.086-48.331-20.117c-1.193-2.821-1.051-6.156,0.363-8.719c1.281-2.32,3.438-3.836,6.072-4.266
			c48.873-8.048,70.972-58.354,71.889-60.492c2.317-5.471,3.379-9.323,1.919-12.765c-2.645-6.231-12.87-9.475-19.638-11.621
			c-1.996-0.631-3.821-1.209-5.364-1.817c-17.667-6.985-20.081-15.252-18.997-20.957c1.548-8.145,11.028-13.186,18.925-13.186
			c2.321,0,4.438,0.438,6.287,1.301c6.196,2.903,11.666,4.374,16.265,4.374c5.253,0,7.329-1.925,7.415-2.007
			c1.919-1.985,5.071-2.025,7.056-0.106c1.986,1.919,2.026,5.098,0.107,7.084c-1.141,1.18-5.562,5.029-14.578,5.029
			c-6.076,0-12.974-1.788-20.5-5.315c-0.501-0.233-1.214-0.359-2.052-0.359c-3.956,0-8.634,2.598-9.101,5.053
			c-0.288,1.516,2.026,5.511,12.846,9.789c1.218,0.479,2.883,1.007,4.646,1.564c8.582,2.722,21.448,6.802,25.889,17.269
			c3.14,7.399,0.652,14.509-1.926,20.593c-1.004,2.342-24.813,56.524-78.018,66.188c1.466,2.197,8.482,8.681,41.159,13.728
			c6.418,0.986,7.947,7.994,9.565,15.413c0.56,2.564,1.138,5.217,1.936,7.934c0.015,0.048,0.028,0.091,0.041,0.129
			c0.099,0.006,0.224,0.011,0.383,0.011c1.481,0,3.945-0.482,6.553-0.993c5.124-1.001,12.12-2.369,21.121-2.369
			c5.003,0,10.172,0.436,15.364,1.296c11.213,1.867,20.226,8.235,29.768,14.978c16.98,12.008,30.09,16.47,48.377,16.47
			c20.066,0,34.035-7.923,46.141-16.483c9.106-6.438,18.521-13.094,29.736-14.963c5.202-0.861,10.374-1.297,15.378-1.297
			c8.547,0,15.202,1.071,21.121,2.229c3.594,0.706,5.547,0.854,6.553,0.854h0.417c0.002,0,0.004,0,0.005,0
			c0.786-2.671,1.365-5.25,1.938-7.877c1.615-7.395,3.14-14.377,9.568-15.364c32.647-5.045,39.672-11.49,41.15-13.701
			c-53.167-9.662-77.009-63.835-78.006-66.157c-0.033-0.077-0.064-0.155-0.094-0.233l-0.406-1.087
			c-2.015-5.36-4.521-12.031-1.434-19.298c4.435-10.457,17.304-14.541,25.819-17.243c1.706-0.54,3.467-1.099,4.723-1.592
			c9.558-3.775,12.908-7.469,12.87-9.482c-0.026-1.347-1.899-3.433-5.319-4.645c-0.072-0.025-0.145-0.053-0.215-0.082l-0.11-0.045
			c-2.326-0.969-5.803-1.045-7.574-0.22c-7.004,3.281-13.48,5.06-19.242,5.279c-0.127,0.006-0.263,0.006-0.39,0
			c-8.199-0.313-12.32-3.887-13.388-4.975c-0.985-1.003-1.502-2.373-1.425-3.776c0.173-3.17,0.38-6.482,0.594-9.89l0.063-1.045
			c1.505-23.834,3.377-53.477-3.845-69.672c-21.913-49.133-68.48-52.951-82.23-52.951c-0.845,0.007-1.73,0.019-2.616,0.029
			c-1.529,0.02-3.06,0.038-4.589,0.038c-13.718,0-60.178,3.815-82.076,52.915c-3.676,8.24-5.385,21.005-5.224,39.023
			c0.024,2.762-2.194,5.021-4.955,5.045c-0.016,0-0.031,0-0.046,0c-2.74,0-4.975-2.209-4.999-4.955
			c-0.176-19.754,1.76-33.477,6.091-43.187c24.351-54.599,75.969-58.842,91.209-58.842c1.487,0,2.976-0.019,4.464-0.037
			c0.9-0.012,1.801-0.022,2.7-0.03c15.313,0,67.038,4.246,91.404,58.879c8.225,18.442,6.267,49.446,4.693,74.358l-0.063,1.043
			c-0.15,2.391-0.296,4.727-0.43,6.998c1.036,0.454,2.62,0.923,4.863,1.03c4.377-0.203,9.489-1.662,15.201-4.338
			c2.717-1.268,5.579-1.533,7.503-1.533c2.802,0,5.672,0.552,8.087,1.554c7.097,2.556,11.748,7.977,11.861,13.838
			c0.142,7.504-6.319,13.889-19.204,18.979c-1.578,0.62-3.503,1.229-5.363,1.819c-6.768,2.147-16.998,5.394-19.638,11.618
			c-1.451,3.414-0.341,6.735,1.589,11.873l0.372,0.994c1.438,3.298,23.628,52.439,71.854,60.386
			c2.652,0.437,4.817,1.973,6.096,4.324c1.406,2.586,1.523,5.924,0.307,8.71c-3.832,8.968-19.645,15.537-48.317,20.042
			c-0.767,1.564-1.695,5.813-2.115,7.737c-0.613,2.812-1.236,5.584-2.114,8.567c-1.335,4.559-4.834,7.177-9.599,7.177h-0.417
			c-2.14,0-4.912-0.341-8.477-1.041c-5.421-1.061-11.502-2.042-19.197-2.042c-4.459,0-9.081,0.391-13.739,1.161
			c-8.95,1.492-17.039,7.21-25.602,13.264C290.586,414.053,274.986,422.858,252.125,422.858z"/>
	</g>
	<g>
		<path d="M156.028,211.192c-2.623,0-4.824-2.043-4.986-4.696c-0.2-3.293-0.393-6.661-0.557-10.063
			c-0.133-2.759,1.995-5.103,4.753-5.235c2.77-0.138,5.103,1.995,5.235,4.753c0.162,3.358,0.353,6.686,0.551,9.938
			c0.167,2.756-1.931,5.127-4.688,5.295C156.234,211.189,156.131,211.192,156.028,211.192z"/>
	</g>
</g>
<g>
</g>
<g>
</g>
<g>
</g>
<g>
</g>
<g>
</g>
<g>
</g>
<g>
</g>
<g>
</g>
<g>
</g>
<g>
</g>
<g>
</g>
<g>
</g>
<g>
</g>
<g>
</g>
<g>
</g>
</svg>
