<svg id="Capa_1" xmlns="http://www.w3.org/2000/svg" xmlns:xlink="http://www.w3.org/1999/xlink" viewBox="0 0 511.997 511.997" style="enable-background:new 0 0 511.997 511.997"><path style="fill:#ffce6e" d="M128.295 59.002c-4.114-21.359-20.011-38.654-38.54-49.437-4.738-2.757-10.626-2.757-15.364.0-18.528 10.783-34.425 28.079-38.54 49.437-5.398 28.021 9.242 55.095 24.892 77.213h42.66C119.053 114.097 133.693 87.023 128.295 59.002z"/><g><path style="fill:#ffac55" d="M55.852 59.002c3.942-20.462 18.699-37.19 36.222-48.04-.768-.476-1.54-.944-2.318-1.397-4.738-2.757-10.626-2.757-15.364.0-18.529 10.783-34.426 28.079-38.54 49.437-5.398 28.021 9.242 55.095 24.892 77.213h20C65.093 114.097 50.454 87.023 55.852 59.002z"/><path style="fill:#ffac55" d="M76.429 138.157c-10.389-17.258-14.214-30.989-11.982-42.582 1.711-8.88 8.123-17.909 17.625-25.135 9.502 7.227 15.915 16.256 17.626 25.135 2.233 11.593-1.593 25.325-11.982 42.582H76.429z"/></g><path style="fill:#2fc8b4" d="M137.609 114.281H26.538c-4.713.0-8.534 3.821-8.534 8.534v15.152c0 4.713 3.821 8.534 8.534 8.534h111.071c4.713.0 8.534-3.821 8.534-8.534v-15.152C146.143 118.102 142.322 114.281 137.609 114.281z"/><path style="fill:#00ae95" d="M48.005 137.967v-15.152c0-4.713 3.821-8.534 8.534-8.534h-30c-4.713.0-8.534 3.821-8.534 8.534v15.152c0 4.713 3.821 8.534 8.534 8.534h30C51.825 146.501 48.005 142.68 48.005 137.967z"/><path style="fill:#35e0ca" d="M51.657 167.418h60.833v161.98H51.657z"/><path style="fill:#2fc8b4" d="M412.14 410.957c71.524.0 81.854 93.54 81.854 93.54H93.967c-35.472-35.472-31.234-106.604-31.234-106.604l35.293-34.512 49.063 5.43 27.529-14.281 103.667 48.892L412.14 410.957z"/><path style="fill:#00ae95" d="M92.774 371.041l7.571-7.403-2.318-.257-35.293 34.512c0 0-4.238 71.132 31.234 106.604h37.907C87.468 460.091 92.774 371.041 92.774 371.041z"/><g><path style="fill:#2fc8b4" d="M302.641 52.403c-2.31-5.506-10.137-5.506-12.448.0-5.883 14.022-13.814 44.248-13.814 105.307h40.076C316.456 96.651 308.524 66.425 302.641 52.403z"/><path style="fill:#2fc8b4" d="M402.04 93.288c-.069-5.971-7.321-8.916-11.533-4.684-10.726 10.778-29.448 35.799-52.422 92.37l37.131 15.079C398.191 139.482 402.215 108.492 402.04 93.288z"/><path style="fill:#2fc8b4" d="M483.346 178.392c3.515-4.827-.537-11.524-6.444-10.65-15.042 2.225-45.009 11.087-97.249 42.696l20.747 34.288C452.64 213.118 474.395 190.685 483.346 178.392z"/><path style="fill:#2fc8b4" d="M190.795 93.288c.069-5.971 7.321-8.916 11.533-4.684 10.726 10.778 29.448 35.799 52.422 92.37l-37.131 15.079C194.644 139.482 190.62 108.492 190.795 93.288z"/><path style="fill:#2fc8b4" d="M109.489 178.392c-3.515-4.827.537-11.524 6.444-10.65 15.042 2.225 45.009 11.087 97.249 42.696l-20.747 34.288C140.195 213.118 118.44 190.685 109.489 178.392z"/><path style="fill:#2fc8b4" d="M129.26 285.579 44.904 314.66c-11.03 3.803-16.889 15.826-13.086 26.856s15.826 16.889 26.856 13.086l39.352 8.778 35.293-34.512 9.711-3.348c11.03-3.803 16.889-15.826 13.086-26.856C152.314 287.636 140.29 281.777 129.26 285.579z"/></g><path style="fill:#00ae95" d="M133.319 328.869 48.963 357.95c-11.03 3.803-16.889 15.826-13.086 26.856 3.802 11.03 15.826 16.889 26.856 13.086l84.356-29.081c11.03-3.803 16.889-15.826 13.086-26.856C156.373 330.926 144.349 325.067 133.319 328.869z"/><path style="fill:#35e0ca" d="M460.941 311.813l-108.398-80.715-56.126-22.566-50.563 22.566-113.96 80.715-.01-.01c5.157 79.759 76.857 142.974 164.534 142.974s159.377-63.215 164.534-142.974L460.941 311.813z"/><g><path style="fill:#00ae95" d="M400.4 244.727c27.18-16.445 46.093-30.401 59.258-41.743-5.881-8.391-12.535-16.378-19.941-23.877-15.538 6.477-35.293 16.344-60.064 31.332L400.4 244.727z"/><path style="fill:#00ae95" d="M361.405 130.723c-7.083 13.098-14.915 29.556-23.32 50.251l37.131 15.08c8.273-20.373 14.079-37.412 18.127-51.606C383.148 138.966 372.467 134.371 361.405 130.723z"/><path style="fill:#00ae95" d="M277.459 121.233c-.681 10.731-1.08 22.828-1.08 36.477h40.076c0-13.648-.398-25.746-1.08-36.477-6.263-.563-12.588-.85-18.958-.85C290.047 120.383 283.722 120.67 277.459 121.233z"/><path style="fill:#00ae95" d="M217.618 196.054l37.131-15.08c-8.405-20.696-16.237-37.154-23.32-50.252-11.062 3.648-21.742 8.244-31.938 13.725C203.539 158.642 209.345 175.681 217.618 196.054z"/><path style="fill:#00ae95" d="M213.182 210.439c-24.771-14.988-44.526-24.855-60.064-31.333-7.407 7.5-14.06 15.486-19.941 23.877 13.166 11.342 32.079 25.298 59.259 41.744L213.182 210.439z"/><path style="fill:#00ae95" d="M460.941 311.813c0 0-104.646-22.117-164.524-86.595-59.877 64.479-164.524 86.595-164.524 86.595l14.856-47.156 70.789-73.119 78.879-21.877 80.396 21.877 54.103 49.199 22.248 31.504L460.941 311.813z"/></g><path style="fill:#35e0ca" d="M461.255 302.58c0 3.095-.101 6.169-.303 9.223l-.01.01c0 0-63.397-120.271-164.524-120.271S131.894 311.813 131.894 311.813l-.01-.01c-.202-3.054-.303-6.128-.303-9.223.0-84.057 73.803-152.196 164.837-152.196S461.255 218.523 461.255 302.58z"/><path style="fill:#2fc8b4" d="M51.657 221.398l17.287 48.544c1.373 3.855 5.023 6.43 9.115 6.43h8.029c4.092.0 7.742-2.575 9.115-6.43l17.287-48.544H51.657z"/><path style="fill:#35e0ca" d="M82.074 137.937v0c-26.111.0-47.278 21.167-47.278 47.277v0c0 26.111 21.167 47.277 47.277 47.277v0c26.11.0 47.277-21.167 47.277-47.277v0C129.351 159.104 108.184 137.937 82.074 137.937z"/><path d="M207.115 344.556c4.143.0 7.5-3.358 7.5-7.5v-17.364c0-4.142-3.357-7.5-7.5-7.5s-7.5 3.358-7.5 7.5v17.364C199.615 341.198 202.973 344.556 207.115 344.556z"/><path d="M218.939 355.078H195.29c-4.143.0-7.5 3.358-7.5 7.5s3.357 7.5 7.5 7.5h23.649c4.143.0 7.5-3.358 7.5-7.5S223.082 355.078 218.939 355.078z"/><path d="M385.72 344.556c4.143.0 7.5-3.358 7.5-7.5v-17.364c0-4.142-3.357-7.5-7.5-7.5s-7.5 3.358-7.5 7.5v17.364C378.22 341.198 381.577 344.556 385.72 344.556z"/><path d="M397.545 355.078h-23.65c-4.143.0-7.5 3.358-7.5 7.5s3.357 7.5 7.5 7.5h23.65c4.143.0 7.5-3.358 7.5-7.5s-3.358000000000004-7.5-7.5-7.5z"/><path d="M317.325 348.883c-3.117-2.726-7.856-2.409-10.582.711-2.502 2.861-6.266 4.502-10.326 4.502s-7.824-1.641-10.326-4.502c-2.725-3.119-7.464-3.438-10.582-.711-3.119 2.726-3.438 7.464-.711 10.583 5.35 6.121 13.229 9.631 21.619 9.631s16.27-3.51 21.619-9.631C320.763 356.347 320.444 351.609 317.325 348.883z"/><path d="M28.787 387.25c3.894 11.293 14.391 18.942 26.272 19.27.105 21.032 3.573 73.248 33.604 103.28 1.407 1.407 3.314 2.197 5.304 2.197h400.025c2.133.0 4.164-.908 5.587-2.496s2.102-3.708 1.868-5.827c-.111-1.008-2.865-24.974-14.833-49.262-13.542-27.485-33.432-44.275-58.097-49.326 22.975-25.365 37.634-57.474 39.918-92.8.0-.002.0-.004.0-.006.212-3.203.319-6.467.319-9.7.0-28.795-8.27-55.833-22.721-79.187 24.646-18.281 37.156-32.048 43.375-40.586 3.169-4.352 3.621-10.035 1.181-14.83-2.452-4.818-7.298-7.812-12.647-7.812-.709.0-1.429.053-2.139.158-11.657 1.724-32.112 7.257-64.167 23.606-5.878-4.906-12.117-9.446-18.682-13.575 13.908-39.903 16.737-63.9 16.585-77.153-.091-7.902-6.375-14.092-14.307-14.092-3.777.0-7.344 1.493-10.043 4.204-9.237 9.283-23.747 28.162-41.365 65.717-6.516-1.73-13.191-3.106-19.996-4.118-1.013-52.944-8.248-81.052-14.272-95.411-2.225-5.302-7.383-8.728-13.14-8.728-5.758.0-10.916 3.426-13.141 8.728-6.024 14.359-13.258 42.471-14.272 95.411-6.805 1.012-13.48 2.388-19.996 4.118-17.619-37.559-32.129-56.437-41.365-65.716-2.698-2.711-6.265-4.204-10.043-4.204-7.931.0-14.214 6.189-14.306 14.092-.152 13.255 2.678 37.255 16.585 77.152-6.564 4.129-12.804 8.668-18.681 13.574-18.336-9.356-34.683-16.113-48.717-20.141-1.477-3.461-3.307-6.734-5.433-9.787h10.559c8.841.0 16.034-7.193 16.034-16.034v-15.152c0-8.841-7.193-16.033-16.034-16.033h-8.595c7.443-17.529 9.627-33.717 6.646-49.197-4.133-21.459-19.489-41.324-42.132-54.501-7.066-4.111-15.842-4.111-22.908.0-6.521 3.795-12.548 8.227-17.912 13.173-3.045 2.808-3.237 7.553-.43 10.598s7.553 3.237 10.598.43c4.564-4.208 9.708-7.989 15.289-11.236 2.412-1.403 5.408-1.403 7.818.0 18.896 10.998 31.634 27.171 34.948 44.374 2.713 14.088-.032 29.29-8.393 46.36h-4.969c.434-4.388.275-8.572-.505-12.626-2.059-10.679-9.321-21.222-20.45-29.686-2.684-2.04-6.396-2.04-9.08.0-11.13 8.464-18.393 19.007-20.449 29.687-.781 4.053-.94 8.237-.506 12.625h-4.969c-8.361-17.071-11.106-32.273-8.393-46.361.758-3.933 2.012-7.853 3.729-11.651 1.706-3.775.029-8.218-3.745-9.924-3.774-1.705-8.217-.029-9.923 3.745-2.199 4.866-3.811 9.91-4.789 14.993-2.982 15.479-.798 31.668 6.646 49.198h-8.595c-8.841.0-16.033 7.192-16.033 16.033v15.152c0 8.841 7.192 16.034 16.033 16.034h10.559c-6.17 8.863-9.801 19.62-9.801 31.213.0 15.498 6.48 29.503 16.861 39.477v82.294l-1.697.585c-14.921 5.144-22.876 21.468-17.732 36.391 2.004 5.813 5.76 10.662 10.55 14.047-2.07 2.143-3.818 4.618-5.161 7.375C26.767 372.256 26.295 380.022 28.787 387.25zM394.54 95.214c-.145 12.109-3.042 33.137-14.823 67.539-6.907-3.539-14.067-6.633-21.419-9.255C373.746 120.907 386.254 103.94 394.54 95.214zM234.537 153.498c-7.352 2.622-14.513 5.716-21.419 9.255-11.78-34.399-14.679-55.428-14.824-67.539C206.579 103.938 219.087 120.904 234.537 153.498zM42.969 382.361c-2.449-7.102 1.337-14.872 8.439-17.321l77.055-26.565c2.127 8.581 5.025 16.97 8.627 25.043.104.233.202.467.307.699.0.0-77.1 26.58-77.108 26.583C53.265 393.223 45.389 389.383 42.969 382.361zM472.994 460.705c6.839 13.769 10.418 27.738 12.143 36.291H97.176c-25.464-27.962-27.206-77.885-27.08-93.709l74.213-25.584c.358.623.74 1.232 1.107 1.85 14.139 23.8 34.532 43.596 58.313 57.681 29.245 17.321 63.444 25.815 97.373 24.98 42.677-1.052 82.83-16.451 113.842-43.703C440.048 419.485 459.566 433.668 472.994 460.705zM307.693 446.907c-.016.001-.033.002-.049.003-72.532 4.32-146.992-39.582-164.778-112.72-.197-.811-3.735-16.359-2.92-16.561.114-.028.506-.127.582-.146 30.329-7.582 59.874-18.773 87.631-33.129 13.17-6.812 25.938-14.447 38.029-23.036 2.647-1.883 31.009-24.531 30.23-25.308 25.612 25.515 57.166 44.317 90.11 58.773 21.106 9.261 43.276 17.05 65.78 22.7.076.019.481.121.601.151C445.079 387.398 383.439 441.945 307.693 446.907zM449.75 280.232c-3.277-4.584-6.688-9.062-10.175-13.488-6.109-7.68-12.573-15.088-19.382-22.155-2.877-2.98-7.626-3.064-10.604-.187-2.98 2.877-3.063 7.625-.187 10.605 8.993 9.316 17.328 19.302 25.027 29.71 3.53 4.772 10.425 14.981 10.547 15.168-21.47-6.239-59.393-19.218-95.037-41.222-.042-.026-.083-.051-.125-.077-17.466-10.764-33.911-23.415-47.901-38.473-1.42-1.528-3.411-2.396-5.496-2.396-2.086.0-4.077.868-5.496 2.396-12.025 12.952-25.912 24.11-40.643 33.833-.13.086-.26.174-.39.26-31.156 20.499-65.938 35.162-101.667 45.573.283-.082 3.111-5.133 3.811-6.128 9.136-13.001 18.948-25.555 29.899-37.084 45.174-47.546 87.192-57.526 114.486-57.526 31.387.0 62.384 12.339 92.129 36.675 3.206 2.624 7.932 2.151 10.554-1.056 2.586-3.163 2.106-7.967-1.056-10.554-32.495-26.585-66.688-40.065-101.627-40.065-43.459.0-86.9 21.604-125.629 62.477-11.074 11.687-21.187 24.27-30.369 37.492-.02.029-.041.059-.061.088 9.096-65.359 65.793-117.213 137.002-125.155 12.635-1.403 25.476-1.436 38.11.0 71.212 7.941 127.912 59.801 137.009 125.161C452.322 283.878 450.505 281.296 449.75 280.232zM476.184 175.446c-5.908 7.719-17.212 19.633-38.588 35.532-4.305-5.687-9.007-11.113-14.071-16.238C449.255 182.047 466.057 177.189 476.184 175.446zM284.039 143.295c1.11-49.41 7.87-74.731 12.379-86.281 4.509 11.55 11.268 36.871 12.378 86.281-.118-.008-3.782-.211-5.505-.274-4.578-.17-9.163-.191-13.74.0C287.713 143.088 285.873 143.173 284.039 143.295zM136.676 180.835c9.801 3.374 20.714 8.023 32.634 13.904-5.064 5.125-9.767 10.551-14.071 16.237-7.17-5.335-13.646-10.551-19.346-15.58.029-.151.048-.302.075-.453.418-2.327.702-4.703.815-7.065C136.895 185.531 136.863 183.178 136.676 180.835zM71.812 96.993c1.069-5.547 4.724-11.448 10.261-16.725 5.536 5.277 9.192 11.179 10.261 16.724.585 3.039.635 6.274.144 9.789H71.67C71.178 103.266 71.227 100.032 71.812 96.993zM25.505 137.966v-15.152c0-.57.464-1.033 1.033-1.033h111.07c.57.0 1.034.463 1.034 1.033v15.152c0 .57-.464 1.034-1.034 1.034h-26.137c-4.106-2.62-8.502-4.653-13.089-6.084-.027-.008-.053-.016-.08-.025-10.474-3.267-21.973-3.253-32.449-.003-.033.01-.067.021-.1.031-4.582 1.431-8.975 3.462-13.078 6.081H26.538C25.969 139 25.505 138.536 25.505 137.966zM42.296 185.213c0-21.571 18.207-39.777 39.777-39.777 21.572.0 39.777 18.198 39.777 39.777.0 21.554-18.231 39.777-39.777 39.777C60.406 224.991 42.296 206.848 42.296 185.213zM59.157 264.815l2.722 7.643c2.432 6.827 8.934 11.413 16.18 11.413h8.029c7.246.0 13.749-4.586 16.181-11.414l2.722-7.643v21.198l-45.833 15.801v-36.998H59.157zM84.58 239.932c4.243-.197 8.462-.892 12.545-2.062.577-.165 1.152-.334 1.721-.517l-10.709 30.071c-.308.865-1.132 1.446-2.05 1.446h-8.029c-.918.0-1.741-.581-2.049-1.446l-10.708-30.071c.573.185 1.152.354 1.733.521C72.722 239.502 78.67 240.205 84.58 239.932zM119.99 224.69c4.244-4.078 7.833-8.826 10.594-14.08 4.959 4.176 10.377 8.445 16.219 12.778-10.392 16.794-17.584 35.494-20.807 55.383l-6.007 2.071L119.99 224.69v0zM47.349 321.75l76.916-26.517c-.122 2.445-.185 4.897-.185 7.345.0 7.025.503 14.072 1.491 21.027.0.0-69.324 23.899-69.341 23.905-7.024 2.422-14.9-1.419-17.32-8.44C36.461 331.969 40.247 324.199 47.349 321.75z"/><g/><g/><g/><g/><g/><g/><g/><g/><g/><g/><g/><g/><g/><g/><g/></svg>